<svg width="23" height="22" viewBox="0 0 23 22" fill="none" xmlns="http://www.w3.org/2000/svg">
    <path d="M22.7838 17.6543C22.4955 17.3661 22.0276 17.3661 21.74 17.6543V17.6557L21.7386 17.6543C21.0676 18.3267 20.141 18.7447 19.1171 18.7447C17.0768 18.7447 15.4158 17.0845 15.4158 15.0435L15.4172 13.5123C15.4172 13.4338 15.4811 13.3699 15.5596 13.3699C15.6395 13.3699 15.7061 13.4338 15.7061 13.5123H15.7048V15.0421C15.7048 16.926 17.2379 18.4585 19.1211 18.4585C21.005 18.4585 22.5362 16.926 22.5362 15.0421C22.5362 14.6294 22.2006 14.2939 21.7879 14.2939C21.3752 14.2939 21.0377 14.6287 21.0377 15.0421C21.0377 16.1006 20.1762 16.962 19.1171 16.962C18.0587 16.962 17.1966 16.1012 17.1966 15.0421H17.1953L17.1966 13.5123C17.1966 13.4338 17.2605 13.3699 17.339 13.3699C17.4176 13.3699 17.4815 13.4338 17.4815 13.5123H17.4802V15.0421C17.4802 15.9461 18.2124 16.6797 19.1178 16.6797C20.0211 16.6797 20.7541 15.9461 20.7541 15.0421V14.2939C20.7541 13.8811 20.4199 13.547 20.0072 13.547C19.5944 13.547 19.2596 13.8811 19.2596 14.2939V15.0421C19.2596 15.1207 19.193 15.1846 19.1131 15.1846C19.0346 15.1846 18.9707 15.1207 18.9707 15.0421L18.972 6.97519C18.974 3.12213 15.8519 0 12.0001 0C8.14841 0 5.02562 3.12213 5.02562 6.97519V15.0415C5.02562 15.1213 4.96171 15.1846 4.88316 15.1846C4.80461 15.1846 4.7407 15.1207 4.7407 15.0421V14.2939C4.7407 13.8811 4.40253 13.547 3.98979 13.547C3.57706 13.547 3.24221 13.8811 3.24221 14.2939V15.0421C3.24221 15.9461 3.97448 16.6797 4.87983 16.6797C5.78319 16.6797 6.51745 15.9461 6.51745 15.0421V13.5123C6.51745 13.4338 6.58069 13.3699 6.65924 13.3699C6.7378 13.3699 6.8017 13.4338 6.8017 13.5123V15.0421H6.79904C6.79904 16.1006 5.93763 16.962 4.8785 16.962C3.82004 16.962 2.95796 16.1006 2.95796 15.0421C2.95796 14.6294 2.62245 14.2939 2.20905 14.2939C1.79632 14.2939 1.46347 14.6287 1.46347 15.0421C1.46347 16.926 2.99458 18.4572 4.8785 18.4572C6.76243 18.4572 8.29487 16.926 8.29487 15.0421V13.5137C8.29487 13.4351 8.35877 13.3712 8.43733 13.3712C8.51588 13.3712 8.57912 13.4351 8.57912 13.5137V15.0448C8.57912 17.0858 6.91754 18.7461 4.87784 18.7461C3.85266 18.7461 2.92734 18.3287 2.25498 17.6557V17.657V17.6557C1.96607 17.3674 1.49809 17.3674 1.20984 17.6557C0.92159 17.9446 0.92159 18.4119 1.20984 18.7008V18.6995C2.11918 19.6075 3.36137 20.1793 4.73405 20.2173V20.2199H5.01896V20.2166C7.81823 20.138 10.0716 17.84 10.0716 15.0241V13.5137C10.0716 13.4351 10.1362 13.3712 10.2147 13.3712C10.2946 13.3712 10.3572 13.4351 10.3572 13.5137V15.0268C10.3572 18.0491 7.90077 20.5075 4.8785 20.5082C4.46577 20.5082 4.13026 20.843 4.13026 21.2551C4.13026 21.6678 4.4651 22.0007 4.87784 22.0007C8.72091 22.0007 11.8477 18.8752 11.851 15.0328V13.5137C11.851 13.4338 11.9163 13.3706 11.9948 13.3706C12.0747 13.3706 12.1379 13.4345 12.1379 13.513H12.1366V15.0308C12.1419 18.8732 15.2681 21.9973 19.1111 21.998C19.5239 21.998 19.8567 21.6632 19.8567 21.2504C19.8567 20.8377 19.5239 20.5028 19.1111 20.5028C16.0889 20.5028 13.6291 18.0451 13.6291 15.0241L13.6304 13.513C13.6304 13.4331 13.693 13.3692 13.7716 13.3692C13.8514 13.3692 13.9134 13.4325 13.9134 13.5117H13.9154L13.9174 15.0228C13.9174 17.8387 16.1707 20.138 18.97 20.2153V20.2173L19.2543 20.2153C20.6276 20.1773 21.8705 19.6055 22.7785 18.6975C23.0667 18.4092 23.0667 17.9419 22.7785 17.6523L22.7838 17.6543Z" fill="#242748"/>
    <path d="M14.5459 5.72499C14.5459 6.16634 14.9034 6.52382 15.3447 6.52382C15.7861 6.52382 16.1435 6.16634 16.1435 5.72499C16.1435 5.28363 15.7861 4.92615 15.3447 4.92615C14.9034 4.92615 14.5459 5.28363 14.5459 5.72499ZM7.85693 5.72499C7.85693 6.16634 8.21441 6.52382 8.65577 6.52382C9.09713 6.52382 9.45461 6.16634 9.45461 5.72499C9.45461 5.28363 9.09713 4.92615 8.65577 4.92615C8.21441 4.92615 7.85693 5.28363 7.85693 5.72499Z" fill="white"/>
</svg>
